#!OML:ASF E:\emotionWalksFemale\Project 1\Capture day 1\Session 1\Female1.ASF
:FULLY-SPECIFIED
:DEGREES
375
root 9.30956 15.5668 0.696185 -361.057 -81.8963 1.4415
lowerback 7.13796 1.7053 0.0438851
upperback -4.14882 2.22842 -0.543
thorax -8.3608 1.05807 -0.913897
lowerneck -5.71613 -7.34583 -10.6401
upperneck 10.4292 -9.69139 6.74465
head 4.9146 -4.84524 3.16512
rclavicle 6.74501e-014 6.95746e-015
rhumerus -48.539 9.73754 -91.0831
rradius 33.9646
rwrist 21.1729
rhand 3.93441 -54.9076
rfingers 7.12502
rthumb 29.3531 -442.61
lclavicle 6.74501e-014 6.95746e-015
lhumerus -45.0483 8.31131 78.8503
lradius 35.0917
lwrist -9.15124
lhand -0.575431 -32.4886
lfingers 7.12502
lthumb 25.0391 -4.10982
rfemur 5.08189 21.8138 31.2706
rtibia 13.7399
rfoot -19.1472 -33.662
rtoes 4.4412
lfemur -3.81428 -23.2314 -26.2502
ltibia 24.5155
lfoot -21.7102 20.1662
ltoes -21.2095
376
root 9.32041 15.5687 0.685298 -360.544 -81.9785 0.891449
lowerback 7.2326 1.62936 0.0907504
upperback -4.17786 2.1439 -0.386539
thorax -8.45307 1.01848 -0.767003
lowerneck -5.69962 -7.23076 -10.7245
upperneck 10.4322 -9.50965 6.59485
head 4.89378 -4.76754 3.14763
rclavicle 3.59179e-014 3.47873e-015
rhumerus -48.5568 9.9953 -91.1445
rradius 34.1161
rwrist 20.9511
rhand 4.27739 -53.1368
rfingers 7.12502
rthumb 29.6805 -440.781
lclavicle 3.59179e-014 3.47873e-015
lhumerus -44.7562 8.37415 79.2234
lradius 35.4239
lwrist -8.45572
lhand -0.703475 -32.4755
lfingers 7.12502
lthumb 24.9164 -4.07966
rfemur 5.16771 21.7395 31.3571
rtibia 13.487
rfoot -19.1329 -33.4933
rtoes 4.70669
lfemur -3.91162 -23.176 -26.1051
ltibia 24.6509
lfoot -21.7694 20.1807
ltoes -20.995
377
root 9.33048 15.5731 0.673864 -360.1 -82.0595 0.413217
lowerback 7.28309 1.54023 0.184688
upperback -4.14861 2.04503 -0.262603
thorax -8.45326 0.969238 -0.675664
lowerneck -5.83399 -7.13759 -10.9965
upperneck 10.4857 -9.35339 6.68338
head 4.93642 -4.69383 3.22509
rclavicle -5.01062e-014 1.3418e-015
rhumerus -48.4579 10.043 -91.1344
rradius 34.2387
rwrist 20.8818
rhand 4.25121 -51.8088
rfingers 7.12502
rthumb 29.6555 -439.458
lclavicle -5.01062e-014 1.3418e-015
lhumerus -44.449 7.76447 79.9884
lradius 35.8326
lwrist -6.95193
lhand -1.52148 -32.3036
lfingers 7.12502
lthumb 24.1323 -3.80142
rfemur 5.33771 21.5278 31.4033
rtibia 13.0532
rfoot -19.0504 -33.188
rtoes 5.16987
lfemur -4.01365 -23.1807 -25.9847
ltibia 24.8282
lfoot -21.9294 20.1043
ltoes -20.0437
378
root 9.33958 15.5743 0.662191 -359.476 -82.2248 -0.273333
lowerback 7.30262 1.43058 0.317537
upperback -4.05405 1.92223 -0.153118
thorax -8.36293 0.906719 -0.615737
lowerneck -6.24507 -7.02926 -11.1212
upperneck 10.6288 -9.15453 6.70356
head 5.0385 -4.59177 3.25213
rclavicle -1.45641e-014 2.03754e-015
rhumerus -48.2314 9.89382 -91.09
rradius 34.3034
rwrist 20.9555
rhand 3.47645 -51.1907
rfingers 7.12502
rthumb 28.9157 -438.969
lclavicle -1.45641e-014 2.03754e-015
lhumerus -44.0343 7.41292 80.5628
lradius 36.1606
lwrist -5.80031
lhand -2.31035 -32.3512
lfingers 7.12502
lthumb 23.3757 -3.75071
rfemur 5.60671 21.6427 31.557
rtibia 12.5783
rfoot -18.8473 -33.1449
rtoes 5.21129
lfemur -4.05542 -22.92 -25.8474
ltibia 24.9694
lfoot -21.6926 20.0954
ltoes -20.4961
379
root 9.34599 15.5906 0.655367 -359.097 -82.4293 -0.680161
lowerback 7.29991 1.34476 0.372556
upperback -4.01464 1.82099 -0.0549046
thorax -8.32129 0.857915 -0.527703
lowerneck -6.56601 -6.91317 -11.0641
upperneck 10.7889 -8.95781 6.5765
head 5.11566 -4.49468 3.2083
rclavicle 4.17841e-014 2.55625e-015
rhumerus -47.9562 9.46644 -90.9434
rradius 34.2285
rwrist 21.2724
rhand 2.68037 -50.6437
rfingers 7.12502
rthumb 28.1551 -438.55
lclavicle 4.17841e-014 2.55625e-015
lhumerus -43.613 7.37559 80.7995
lradius 36.4145
lwrist -5.42651
lhand -2.52083 -32.6392
lfingers 7.12502
lthumb 23.1738 -4.01324
rfemur 5.78627 21.4645 31.5462
rtibia 12.1383
rfoot -18.6812 -32.7212
rtoes 5.55995
lfemur -3.86054 -23.7004 -25.7278
ltibia 25.0869
lfoot -24.7072 17.4039
ltoes 3.20619
380
root 9.35169 15.5993 0.649012 -359.247 -82.6696 -0.58823
lowerback 7.36337 1.35678 0.353895
upperback -4.04116 1.84087 0.0178839
thorax -8.39003 0.87032 -0.445477
lowerneck -6.37578 -6.82411 -11.2802
upperneck 10.6436 -8.85384 6.78317
head 5.04842 -4.44366 3.32339
rclavicle -4.263e-014 -7.33018e-015
rhumerus -47.9146 9.09728 -90.7406
rradius 34.2458
rwrist 21.4415
rhand 2.03942 -50.367
rfingers 7.12502
rthumb 27.5423 -438.372
lclavicle -4.263e-014 -7.33018e-015
lhumerus -43.1604 7.42383 80.9704
lradius 36.328
lwrist -5.40858
lhand -3.09191 -33.0784
lfingers 7.12502
lthumb 22.6258 -4.38454
rfemur 5.93098 21.116 31.4344
rtibia 11.7961
rfoot -18.4862 -32.1374
rtoes 5.93561
lfemur -3.74279 -23.92 -25.7497
ltibia 25.1522
lfoot -25.8723 16.4609
ltoes 12.4406
381
root 9.3587 15.5995 0.639442 -359.555 -82.9231 -0.348112
lowerback 7.42873 1.38985 0.333868
upperback -4.05551 1.88495 0.0384925
thorax -8.44492 0.893145 -0.420937
lowerneck -6.05017 -6.70962 -11.408
upperneck 10.3497 -8.73663 7.019
head 4.90814 -4.38274 3.44048
rclavicle -1.47629e-014 -1.31695e-015
rhumerus -47.9204 8.97792 -90.7758
rradius 34.3186
rwrist 21.2949
rhand 1.54694 -50.1966
rfingers 7.12502
rthumb 27.0712 -438.276
lclavicle -1.47629e-014 -1.31695e-015
lhumerus -42.6004 7.38356 81.206
lradius 36.0131
lwrist -5.31409
lhand -4.11121 -33.4924
lfingers 7.12502
lthumb 21.6472 -4.68252
rfemur 6.06841 21.036 31.391
rtibia 11.5663
rfoot -18.1785 -31.8834
rtoes 5.53232
lfemur -3.68373 -23.7079 -25.7669
ltibia 25.1637
lfoot -26.0954 16.3812
ltoes 13.2663
382
root 9.3664 15.5998 0.629089 -360.038 -83.1262 0.128363
lowerback 7.39535 1.34657 0.330537
upperback -4.03368 1.82519 0.0232898
thorax -8.4017 0.864091 -0.425154
lowerneck -6.02801 -6.55774 -11.0343
upperneck 10.2329 -8.52651 6.7007
head 4.81853 -4.28162 3.30191
rclavicle -7.3923e-015 -6.41081e-015
rhumerus -47.7796 8.76661 -90.8656
rradius 34.404
rwrist 21.3226
rhand 1.15573 -49.897
rfingers 7.12502
rthumb 26.6969 -438.034
lclavicle -7.3923e-015 -6.41081e-015
lhumerus -42.2208 7.13782 81.4841
lradius 36.1138
lwrist -5.08329
lhand -5.02543 -34.0116
lfingers 7.12502
lthumb 20.769 -5.10303
rfemur 5.99247 20.9654 31.3122
rtibia 11.6349
rfoot -18.0643 -31.6784
rtoes 5.12516
lfemur -3.67652 -23.4259 -25.765
ltibia 25.0965
lfoot -25.9776 16.3735
ltoes 12.9272
383
root 9.37502 15.6001 0.620937 -360.815 -83.2981 0.919301
lowerback 7.33997 1.30683 0.256888
upperback -4.00522 1.76881 0.0913591
thorax -8.34341 0.843376 -0.301962
lowerneck -6.13465 -6.42986 -10.8578
upperneck 10.2254 -8.31145 6.31546
head 4.79125 -4.18713 3.1685
rclavicle 2.29783e-014 3.13086e-015
rhumerus -47.6683 8.44196 -90.5743
rradius 34.5612
rwrist 21.6145
rhand 0.769848 -49.7582
rfingers 7.12502
rthumb 26.3275 -437.951
lclavicle 2.29783e-014 3.13086e-015
lhumerus -42.0754 6.76955 82.0107
lradius 36.685
lwrist -4.47328
lhand -5.47856 -34.2186
lfingers 7.12502
lthumb 20.3335 -5.26309
rfemur 5.83153 21.0153 31.2119
rtibia 11.8543
rfoot -18.036 -31.6017
rtoes 4.93205
lfemur -3.67972 -23.2439 -25.8172
ltibia 25.0045
lfoot -25.8058 16.423
ltoes 13.0468
384
root 9.38423 15.5982 0.61377 -361.728 -83.4647 1.77068
lowerback 7.37304 1.35039 0.0927649
upperback -3.96249 1.81724 0.18756
thorax -8.32492 0.87958 -0.115669
lowerneck -6.23293 -6.41959 -10.8664
upperneck 10.2207 -8.26736 6.17334
head 4.79712 -4.1709 3.12611
rclavicle 4.8081e-015 1.39149e-015
rhumerus -47.6418 8.36456 -90.3031
rradius 34.7408
rwrist 21.6078
rhand 0.510094 -50.0098
rfingers 7.12502
rthumb 26.0789 -438.239
lclavicle 4.8081e-015 1.39149e-015
lhumerus -41.8622 6.23429 82.6027
lradius 37.4036
lwrist -3.39446
lhand -4.57129 -33.7192
lfingers 7.12502
lthumb 21.2053 -4.85902
rfemur 5.77781 21.2354 31.1797
rtibia 12.0745
rfoot -18.0901 -31.7295
rtoes 4.36509
lfemur -3.58503 -23.1719 -25.935
ltibia 24.9164
lfoot -25.6048 16.7238
ltoes 12.3404
385
root 9.3941 15.5975 0.601952 -362.636 -83.6748 2.56667
lowerback 7.49457 1.42237 -0.0222954
upperback -3.92877 1.89826 0.137751
thorax -8.3617 0.92403 -0.11824
lowerneck -6.27904 -6.44348 -10.5154
upperneck 10.1633 -8.31477 6.05281
head 4.7709 -4.18576 3.02907
rclavicle 7.97002e-015 2.18663e-015
rhumerus -47.6397 8.30946 -90.4521
rradius 34.9111
rwrist 21.4139
rhand 0.30628 -50.5197
rfingers 7.12502
rthumb 25.8837 -438.778
lclavicle 7.97002e-015 2.18663e-015
lhumerus -41.5906 5.37024 82.9476
lradius 38.0063
lwrist -2.34112
lhand -3.84887 -33.2609
lfingers 7.12502
lthumb 21.8991 -4.48027
rfemur 5.78835 21.2645 31.1536
rtibia 12.2071
rfoot -17.9749 -31.7122
rtoes 3.26856
lfemur -3.44895 -23.089 -26.0494
ltibia 24.8673
lfoot -25.4005 17.2328
ltoes 10.515
